<svg width="18" height="20" viewBox="0 0 18 20" fill="none" xmlns="http://www.w3.org/2000/svg">
<path fill-rule="evenodd" clip-rule="evenodd" d="M4.81049 0H13.1915C16.2805 0 18.0005 1.78 18.0005 4.83V15.16C18.0005 18.26 16.2805 20 13.1915 20H4.81049C1.77049 20 0.000488281 18.26 0.000488281 15.16V4.83C0.000488281 1.78 1.77049 0 4.81049 0ZM5.08044 4.66006V4.65006H8.06944C8.50044 4.65006 8.85044 5.00006 8.85044 5.42906C8.85044 5.87006 8.50044 6.22006 8.06944 6.22006H5.08044C4.64944 6.22006 4.30044 5.87006 4.30044 5.44006C4.30044 5.01006 4.64944 4.66006 5.08044 4.66006ZM5.08044 10.7401H12.9204C13.3504 10.7401 13.7004 10.3901 13.7004 9.9601C13.7004 9.5301 13.3504 9.1791 12.9204 9.1791H5.08044C4.64944 9.1791 4.30044 9.5301 4.30044 9.9601C4.30044 10.3901 4.64944 10.7401 5.08044 10.7401ZM5.08046 15.31H12.9205C13.3195 15.27 13.6205 14.929 13.6205 14.53C13.6205 14.12 13.3195 13.78 12.9205 13.74H5.08046C4.78046 13.71 4.49046 13.85 4.33046 14.11C4.17046 14.36 4.17046 14.69 4.33046 14.95C4.49046 15.2 4.78046 15.35 5.08046 15.31Z" fill="#4DBCFE"/>
</svg>
