<svg width="20" height="20" viewBox="0 0 20 20" fill="none" xmlns="http://www.w3.org/2000/svg">
<path fill-rule="evenodd" clip-rule="evenodd" d="M0.000244141 8.66993C0.000244141 3.88166 3.84058 0 8.57788 0C10.8528 0 13.0346 0.913436 14.6432 2.53936C16.2518 4.16529 17.1555 6.37052 17.1555 8.66993C17.1555 13.4582 13.3152 17.3399 8.57788 17.3399C3.84058 17.3399 0.000244141 13.4582 0.000244141 8.66993ZM17.0136 15.6543L19.5683 17.7164H19.6126C20.1295 18.2388 20.1295 19.0858 19.6126 19.6082C19.0958 20.1306 18.2578 20.1306 17.741 19.6082L15.621 17.1784C15.4205 16.9766 15.3079 16.7023 15.3079 16.4164C15.3079 16.1304 15.4205 15.8561 15.621 15.6543C16.0075 15.2704 16.6271 15.2704 17.0136 15.6543Z" fill="#6E9CFD"/>
</svg>
