<svg width="20" height="20" viewBox="0 0 20 20" fill="none" xmlns="http://www.w3.org/2000/svg">
<path fill-rule="evenodd" clip-rule="evenodd" d="M11.4501 2.88017H14.5201C18.2101 2.88017 20.0101 4.85017 20.0001 8.89017V13.7602C20.0001 17.6202 17.6201 20.0002 13.7501 20.0002H6.24012C2.39012 20.0002 0.00012207 17.6202 0.00012207 13.7502V6.24017C0.00012207 2.10017 1.84012 0.000170661 5.47012 0.000170661H7.05012C7.98112 -0.00982934 8.85012 0.420171 9.42012 1.15017L10.3001 2.32017C10.5801 2.67017 11.0001 2.88017 11.4501 2.88017ZM5.37017 13.2902H14.6302C15.0402 13.2902 15.3702 12.9502 15.3702 12.5402C15.3702 12.1202 15.0402 11.7902 14.6302 11.7902H5.37017C4.95017 11.7902 4.62017 12.1202 4.62017 12.5402C4.62017 12.9502 4.95017 13.2902 5.37017 13.2902Z" fill="#8E7EFC"/>
</svg>
